<?xml version="1.0" encoding="utf-8"?><!-- Uploaded to: SVG Repo, www.svgrepo.com, Generator: SVG Repo Mixer Tools -->
<svg width="800px" height="800px" viewBox="0 0 100 100" xmlns="http://www.w3.org/2000/svg" xmlns:xlink="http://www.w3.org/1999/xlink" aria-hidden="true" role="img" class="iconify iconify--gis" preserveAspectRatio="xMidYMid meet"><path d="M37.18 0c-9.53 0-19.061 3.624-26.31 10.871c-14.495 14.495-14.495 38.122 0 52.617c13.57 13.568 35.1 14.367 49.687 2.528l3.576 3.576a3.956 5.958 45 0 0 .646 3.613L90.73 99.156a3.956 5.958 45 0 0 7.01-1.416a3.956 5.958 45 0 0 1.416-7.01l-25.95-25.95a3.956 5.958 45 0 0-3.616-.647l-3.576-3.576c11.839-14.588 11.043-36.118-2.526-49.686C56.241 3.624 46.71 0 37.18 0zm0 8.217c7.397 0 14.795 2.834 20.463 8.502a28.875 28.875 0 0 1 0 40.924a28.875 28.875 0 0 1-40.924 0a28.875 28.875 0 0 1 0-40.924c5.667-5.668 13.064-8.502 20.46-8.502zm-5 11.463v12.5h-12.5v10h12.5v12.5h10v-12.5h12.5v-10h-12.5v-12.5h-10z" fill="#000000"></path></svg>