<svg fill="#000000" width="800px" height="800px" viewBox="0 0 64 64" version="1.1" xmlns="http://www.w3.org/2000/svg" style="fill-rule:evenodd;clip-rule:evenodd;stroke-linejoin:round;stroke-miterlimit:2;">

<g id="Icons1">

<g id="Strike">

</g>

<g id="H1">

</g>

<g id="H2">

</g>

<g id="H3">

</g>

<g id="list-ul">

</g>

<g id="hamburger-1">

</g>

<g id="hamburger-2">

</g>

<g id="list-ol">

</g>

<g id="list-task">

</g>

<g id="trash">

</g>

<g id="vertical-menu">

</g>

<g id="horizontal-menu">

</g>

<g id="sidebar-2">

</g>

<g id="Pen">

</g>

<g id="Pen1">

<path d="M55.944,51.712l0,4.201l-33.652,-0.027l4.71,-4.174l28.942,0Zm-7.555,-43.712c1.649,0 2.505,0.128 4.752,2.011c2.294,1.921 2.707,3.419 2.803,5.087c0.102,1.795 -0.504,3.976 -2.188,5.681l-31.961,31.961c-0.52,0.475 -0.629,0.45 -0.977,0.553l-10.226,2.557c-1.472,0.299 -2.854,-1.049 -2.55,-2.55l2.557,-10.226c0.1,-0.334 0.133,-0.517 0.553,-0.976c10.696,-10.697 21.195,-21.594 32.09,-32.087c1.421,-1.335 3.497,-2.011 5.147,-2.011Zm-32.375,35.182l-1.477,1.477l-1.566,6.262l6.262,-1.566c0.493,-0.492 0.985,-0.983 1.479,-1.474l-4.698,-4.699Zm30.176,-20.573l-4.802,-4.801l-22.493,22.493l4.712,4.713c7.549,-7.448 15.196,-14.801 22.583,-22.405Zm2.826,-2.936c0.618,-0.648 1.234,-1.298 1.848,-1.951c1.673,-1.826 0.443,-5.454 -2.307,-5.578c-0.056,-0.002 -0.112,-0.002 -0.168,-0.002c-0.861,0.016 -1.699,0.372 -2.312,0.977l-1.807,1.808l4.746,4.746Z" style="fill-rule:nonzero;"/>

</g>

<g id="clock">

</g>

<g id="external-link">

</g>

<g id="hr">

</g>

<g id="info">

</g>

<g id="warning">

</g>

<g id="plus-circle">

</g>

<g id="minus-circle">

</g>

<g id="vue">

</g>

<g id="cog">

</g>

<g id="logo">

</g>

<g id="radio-check">

</g>

<g id="eye-slash">

</g>

<g id="eye">

</g>

<g id="toggle-off">

</g>

<g id="shredder">

</g>

<g id="spinner--loading--dots-">

</g>

<g id="react">

</g>

<g id="check-selected">

</g>

<g id="turn-off">

</g>

<g id="code-block">

</g>

<g id="user">

</g>

<g id="coffee-bean">

</g>

<g id="coffee-beans">

<g id="coffee-bean1">

</g>

</g>

<g id="coffee-bean-filled">

</g>

<g id="coffee-beans-filled">

<g id="coffee-bean2">

</g>

</g>

<g id="clipboard">

</g>

<g id="clipboard-paste">

</g>

<g id="clipboard-copy">

</g>

<g id="Layer1">

</g>

</g>

</svg>